<svg xmlns="http://www.w3.org/2000/svg" viewBox="0 0 1280 603.37">
  <path fill="#5EEAD4" d="M917.25,301.66v91.4c0,37.11-17.48,71.98-46.42,94.3-4.14,3.15-8.47,6.08-13.04,8.71l-36.41,21.02-121.91,70.38c-18.33,10.59-38.89,15.91-59.46,15.91s-41.1-5.32-59.46-15.91l-121.91-70.38,36.41-21.02c4.57-2.63,8.89-5.56,13.04-8.71l97.72,56.41c21.11,12.19,47.33,12.19,68.44,0l133.29-76.94,1.66-.97,23.35-13.49c21.11-12.19,34.24-34.93,34.24-59.31v-91.4c0-13.94,11.28-25.22,25.22-25.22s25.25,11.28,25.25,25.22Z"/>
  <path fill="#FFFFFF" d="M1280,210.26v182.8c0,42.37-22.77,81.84-59.46,103.01l-158.3,91.4c-18.33,10.59-38.92,15.91-59.46,15.91s-41.13-5.32-59.49-15.91l-121.91-70.38,36.41-21.02c4.57-2.63,8.89-5.56,13.04-8.74l97.72,56.41c21.11,12.19,47.33,12.19,68.44,0l158.3-91.4c21.11-12.19,34.24-34.93,34.24-59.31v-182.8c0-24.35-13.13-47.06-34.24-59.25l-158.3-91.4c-21.11-12.19-47.33-12.19-68.44,0l-134.74,77.76-23.59,13.64c-21.11,12.19-34.21,34.9-34.21,59.25v91.4c0,13.94-11.31,25.25-25.25,25.25s-25.25-11.31-25.25-25.25v-91.4c0-37.08,17.48-71.92,46.42-94.24,4.14-3.18,8.47-6.11,13.04-8.74l36.41-21.02,121.95-70.38c36.66-21.17,82.23-21.17,118.92,0l158.3,91.4c36.69,21.2,59.46,60.64,59.46,102.98Z"/>
  <path fill="#FFFFFF" d="M554.5,301.66v91.4c0,37.11-17.45,71.98-46.42,94.3-4.14,3.15-8.47,6.08-13.04,8.71l-36.41,21.02-121.91,70.38c-18.33,10.59-38.89,15.91-59.46,15.91s-41.13-5.32-59.46-15.91l-158.3-91.4C22.8,474.9,0,435.43,0,393.06v-182.8c0-42.34,22.8-81.78,59.46-102.98L217.79,15.88c36.69-21.17,82.23-21.17,118.92,0l121.95,70.38-36.41,21.02c-4.57,2.66-8.95,5.56-13.07,8.74l-97.72-56.41c-21.08-12.19-47.33-12.19-68.44,0l-158.3,91.4c-21.11,12.19-34.21,34.9-34.21,59.25v182.8c0,24.38,13.1,47.12,34.21,59.31l158.3,91.4c21.11,12.19,47.33,12.19,68.44,0l134.47-77.64c.24-.12.51-.27.76-.39l23.11-13.37c21.11-12.19,34.24-34.93,34.24-59.31v-91.4c0-13.94,11.31-25.22,25.25-25.22s25.22,11.28,25.22,25.22Z"/>
  <path fill="#5EEAD4" d="M821.38,86.26l-36.41,21.02c-4.57,2.63-8.89,5.56-13.04,8.74l-97.69-56.41c-21.11-12.19-47.33-12.19-68.44,0l-134.71,77.76-23.59,13.64c-21.11,12.19-34.24,34.9-34.24,59.25v91.4c0,13.94-11.31,25.25-25.25,25.25s-25.22-11.31-25.22-25.25v-91.4c0-37.05,17.45-71.89,46.39-94.24,4.11-3.18,8.5-6.08,13.07-8.74l36.41-21.02,121.88-70.38c36.69-21.17,82.26-21.17,118.92,0l121.91,70.38Z"/>
</svg>
